# xmcd
#
# Track frame offsets:
# 150
# 20930
# 48178
# 96234
# 132679
# 145583
# 160715
# 181429
# 196480
# 212893
# 238140
#
# Disc length: 3475 seconds
#
#
# Revision: 0
# Processed by: cddbd v1.5.2PL0 Copyright (c) Steve Scherf et al.
# Submitted via: FreeRIP 2.941 
#
DISCID=a40d910b
DTITLE=Blind Lemon - Bit o' Juice
DYEAR=2009
DGENRE=Blues
TTITLE0=Wish You Would
TTITLE1=Harpoon Man
TTITLE2=Long Distance Call
TTITLE3=At the Station
TTITLE4=Annie Maybe
TTITLE5=You in the Know
TTITLE6=Mojo Working
TTITLE7=Serenity
TTITLE8=My Lady
TTITLE9=Low Rider
TTITLE10=Bugle Call Blues
EXTD=
EXTT0=
EXTT1=
EXTT2=
EXTT3=
EXTT4=
EXTT5=
EXTT6=
EXTT7=
EXTT8=
EXTT9=
EXTT10=
PLAYORDER=
